<svg width="30" height="30" viewBox="0 0 30 30" fill="none" xmlns="http://www.w3.org/2000/svg">
<path d="M15.0002 0.833313C7.18016 0.833313 0.833496 7.17998 0.833496 15C0.833496 22.82 7.18016 29.1666 15.0002 29.1666C22.8202 29.1666 29.1668 22.82 29.1668 15C29.1668 7.17998 22.8202 0.833313 15.0002 0.833313ZM15.0002 5.08331C17.3518 5.08331 19.2502 6.98165 19.2502 9.33331C19.2502 11.685 17.3518 13.5833 15.0002 13.5833C12.6485 13.5833 10.7502 11.685 10.7502 9.33331C10.7502 6.98165 12.6485 5.08331 15.0002 5.08331ZM15.0002 25.2C11.4585 25.2 8.32766 23.3866 6.50016 20.6383C6.54266 17.8191 12.1668 16.275 15.0002 16.275C17.8193 16.275 23.4577 17.8191 23.5002 20.6383C21.6727 23.3866 18.5418 25.2 15.0002 25.2Z" fill="#0D1C41"/>
</svg>
